<mxfile host="65bd71144e">
    <diagram id="c9e6PQ0CMPk_gR4neBpX" name="第 1 页">
        <mxGraphModel dx="566" dy="378" grid="1" gridSize="10" guides="1" tooltips="1" connect="1" arrows="1" fold="1" page="1" pageScale="1" pageWidth="2339" pageHeight="3300" math="0" shadow="0">
            <root>
                <mxCell id="0"/>
                <mxCell id="1" parent="0"/>
                <mxCell id="318" value="PAGE_A" style="rounded=0;whiteSpace=wrap;html=1;fillColor=#d5e8d4;strokeColor=#82b366;" parent="1" vertex="1">
                    <mxGeometry x="478.5" y="260.5" width="121" height="39" as="geometry"/>
                </mxCell>
                <mxCell id="322" value="" style="endArrow=async;html=1;strokeWidth=2;endFill=1;" parent="1" edge="1">
                    <mxGeometry width="50" height="50" relative="1" as="geometry">
                        <mxPoint x="390" y="388" as="sourcePoint"/>
                        <mxPoint x="460" y="388.07" as="targetPoint"/>
                    </mxGeometry>
                </mxCell>
                <mxCell id="328" value="&lt;b&gt;push&lt;/b&gt;" style="edgeLabel;html=1;align=center;verticalAlign=middle;resizable=0;points=[];" parent="322" vertex="1" connectable="0">
                    <mxGeometry x="-0.2" y="3" relative="1" as="geometry">
                        <mxPoint x="7" y="-2" as="offset"/>
                    </mxGeometry>
                </mxCell>
                <mxCell id="323" value="&lt;b&gt;&lt;font color=&quot;#ff0000&quot;&gt;new&amp;nbsp; cache A&lt;/font&gt;&lt;/b&gt;" style="text;html=1;strokeColor=none;fillColor=none;align=center;verticalAlign=middle;whiteSpace=wrap;rounded=0;" parent="1" vertex="1">
                    <mxGeometry x="499" y="341" width="80" height="30" as="geometry"/>
                </mxCell>
                <mxCell id="324" value="&lt;font color=&quot;#ff0000&quot;&gt;A&lt;/font&gt;" style="rounded=0;whiteSpace=wrap;html=1;fillColor=#fff2cc;strokeColor=#d6b656;" parent="1" vertex="1">
                    <mxGeometry x="489" y="410" width="40" height="30" as="geometry"/>
                </mxCell>
                <mxCell id="331" value="" style="endArrow=async;html=1;strokeWidth=2;endFill=1;" parent="1" edge="1">
                    <mxGeometry width="50" height="50" relative="1" as="geometry">
                        <mxPoint x="620" y="385.57" as="sourcePoint"/>
                        <mxPoint x="690" y="385.57" as="targetPoint"/>
                    </mxGeometry>
                </mxCell>
                <mxCell id="332" value="&lt;b&gt;push&lt;/b&gt;" style="edgeLabel;html=1;align=center;verticalAlign=middle;resizable=0;points=[];" parent="331" vertex="1" connectable="0">
                    <mxGeometry x="-0.2" y="3" relative="1" as="geometry">
                        <mxPoint x="7" y="-2" as="offset"/>
                    </mxGeometry>
                </mxCell>
                <mxCell id="334" value="A&amp;nbsp; &amp;nbsp;|&amp;nbsp; &amp;nbsp;&lt;font color=&quot;#ff0000&quot;&gt;B&lt;/font&gt;" style="rounded=0;whiteSpace=wrap;html=1;fillColor=#fff2cc;strokeColor=#d6b656;" parent="1" vertex="1">
                    <mxGeometry x="730" y="371" width="80" height="30" as="geometry"/>
                </mxCell>
                <mxCell id="335" value="&lt;b&gt;&lt;font color=&quot;#ff0000&quot;&gt;new&amp;nbsp; cache B&lt;/font&gt;&lt;/b&gt;" style="text;html=1;strokeColor=none;fillColor=none;align=center;verticalAlign=middle;whiteSpace=wrap;rounded=0;" parent="1" vertex="1">
                    <mxGeometry x="730" y="340" width="80" height="30" as="geometry"/>
                </mxCell>
                <mxCell id="336" value="" style="endArrow=async;html=1;strokeWidth=2;endFill=1;" parent="1" edge="1">
                    <mxGeometry width="50" height="50" relative="1" as="geometry">
                        <mxPoint x="860" y="390.57" as="sourcePoint"/>
                        <mxPoint x="930" y="390.57" as="targetPoint"/>
                    </mxGeometry>
                </mxCell>
                <mxCell id="337" value="&lt;b&gt;push&lt;/b&gt;" style="edgeLabel;html=1;align=center;verticalAlign=middle;resizable=0;points=[];" parent="336" vertex="1" connectable="0">
                    <mxGeometry x="-0.2" y="3" relative="1" as="geometry">
                        <mxPoint x="6" y="-7" as="offset"/>
                    </mxGeometry>
                </mxCell>
                <mxCell id="338" value="A&amp;nbsp; &amp;nbsp;|&amp;nbsp; &amp;nbsp;B&amp;nbsp; &amp;nbsp;|&amp;nbsp; &lt;font color=&quot;#ff0000&quot;&gt;C&lt;/font&gt;" style="rounded=0;whiteSpace=wrap;html=1;fillColor=#fff2cc;strokeColor=#d6b656;" parent="1" vertex="1">
                    <mxGeometry x="969" y="371" width="100" height="30" as="geometry"/>
                </mxCell>
                <mxCell id="339" value="&lt;b&gt;&lt;font color=&quot;#ff0000&quot;&gt;new&amp;nbsp; cache C&lt;/font&gt;&lt;/b&gt;" style="text;html=1;strokeColor=none;fillColor=none;align=center;verticalAlign=middle;whiteSpace=wrap;rounded=0;" parent="1" vertex="1">
                    <mxGeometry x="979" y="340" width="80" height="30" as="geometry"/>
                </mxCell>
                <mxCell id="340" value="A&amp;nbsp; &amp;nbsp;|&amp;nbsp; &amp;nbsp;B&amp;nbsp; &amp;nbsp;|&amp;nbsp; C" style="rounded=0;whiteSpace=wrap;html=1;fillColor=#f5f5f5;strokeColor=#666666;fontColor=#333333;" parent="1" vertex="1">
                    <mxGeometry x="489" y="371" width="100" height="30" as="geometry"/>
                </mxCell>
                <mxCell id="346" value="A&amp;nbsp; &amp;nbsp;|&amp;nbsp; &amp;nbsp;&lt;font color=&quot;#ff0000&quot;&gt;B&lt;/font&gt;&amp;nbsp; &amp;nbsp;|&amp;nbsp; C" style="rounded=0;whiteSpace=wrap;html=1;fillColor=#f5f5f5;strokeColor=#666666;fontColor=#333333;" parent="1" vertex="1">
                    <mxGeometry x="726" y="510" width="100" height="30" as="geometry"/>
                </mxCell>
                <mxCell id="347" value="&lt;b&gt;&lt;font color=&quot;#ff0000&quot;&gt;use cache B&lt;/font&gt;&lt;/b&gt;" style="text;html=1;strokeColor=none;fillColor=none;align=center;verticalAlign=middle;whiteSpace=wrap;rounded=0;" parent="1" vertex="1">
                    <mxGeometry x="736" y="480" width="80" height="30" as="geometry"/>
                </mxCell>
                <mxCell id="350" value="&lt;font color=&quot;#ff0000&quot;&gt;A&lt;/font&gt;&amp;nbsp; &amp;nbsp;|&amp;nbsp; &amp;nbsp;&lt;font color=&quot;#000000&quot;&gt;B&lt;/font&gt;&amp;nbsp; &amp;nbsp;|&amp;nbsp; C" style="rounded=0;whiteSpace=wrap;html=1;fillColor=#f5f5f5;strokeColor=#666666;fontColor=#333333;" parent="1" vertex="1">
                    <mxGeometry x="492" y="509" width="100" height="30" as="geometry"/>
                </mxCell>
                <mxCell id="351" value="&lt;b&gt;&lt;font color=&quot;#ff0000&quot;&gt;use cache A&lt;/font&gt;&lt;/b&gt;" style="text;html=1;strokeColor=none;fillColor=none;align=center;verticalAlign=middle;whiteSpace=wrap;rounded=0;" parent="1" vertex="1">
                    <mxGeometry x="502" y="479" width="80" height="30" as="geometry"/>
                </mxCell>
                <mxCell id="352" value="A&amp;nbsp; &amp;nbsp;|&amp;nbsp; &amp;nbsp;&lt;font color=&quot;#000000&quot;&gt;B&lt;/font&gt;&amp;nbsp; &amp;nbsp;|&amp;nbsp; &lt;b&gt;&lt;font color=&quot;#ff0000&quot;&gt;C&lt;/font&gt;&lt;/b&gt;" style="rounded=0;whiteSpace=wrap;html=1;fillColor=#f5f5f5;strokeColor=#666666;fontColor=#333333;" parent="1" vertex="1">
                    <mxGeometry x="969" y="510" width="100" height="30" as="geometry"/>
                </mxCell>
                <mxCell id="353" value="&lt;b&gt;&lt;font color=&quot;#ff0000&quot;&gt;use cache C&lt;/font&gt;&lt;/b&gt;" style="text;html=1;strokeColor=none;fillColor=none;align=center;verticalAlign=middle;whiteSpace=wrap;rounded=0;" parent="1" vertex="1">
                    <mxGeometry x="979" y="480" width="80" height="30" as="geometry"/>
                </mxCell>
                <mxCell id="354" value="" style="endArrow=async;html=1;strokeWidth=2;endFill=1;" parent="1" edge="1">
                    <mxGeometry width="50" height="50" relative="1" as="geometry">
                        <mxPoint x="863" y="519.5" as="sourcePoint"/>
                        <mxPoint x="933" y="519.5" as="targetPoint"/>
                    </mxGeometry>
                </mxCell>
                <mxCell id="355" value="&lt;b&gt;forward&lt;/b&gt;" style="edgeLabel;html=1;align=center;verticalAlign=middle;resizable=0;points=[];" parent="354" vertex="1" connectable="0">
                    <mxGeometry x="-0.2" y="3" relative="1" as="geometry">
                        <mxPoint x="3" y="-8" as="offset"/>
                    </mxGeometry>
                </mxCell>
                <mxCell id="356" value="" style="endArrow=async;html=1;fontColor=#FF0000;strokeWidth=2;endFill=1;" parent="1" edge="1">
                    <mxGeometry width="50" height="50" relative="1" as="geometry">
                        <mxPoint x="934" y="531" as="sourcePoint"/>
                        <mxPoint x="864" y="531" as="targetPoint"/>
                    </mxGeometry>
                </mxCell>
                <mxCell id="357" value="&lt;b&gt;&lt;font color=&quot;#000000&quot;&gt;goback&lt;/font&gt;&lt;/b&gt;" style="edgeLabel;html=1;align=center;verticalAlign=middle;resizable=0;points=[];fontColor=#FF0000;" parent="356" vertex="1" connectable="0">
                    <mxGeometry x="-0.1714" y="-2" relative="1" as="geometry">
                        <mxPoint x="-5" y="10" as="offset"/>
                    </mxGeometry>
                </mxCell>
                <mxCell id="358" value="" style="endArrow=async;html=1;strokeWidth=2;endFill=1;" parent="1" edge="1">
                    <mxGeometry width="50" height="50" relative="1" as="geometry">
                        <mxPoint x="614" y="519.5" as="sourcePoint"/>
                        <mxPoint x="684" y="519.5" as="targetPoint"/>
                    </mxGeometry>
                </mxCell>
                <mxCell id="359" value="&lt;b&gt;forward&lt;/b&gt;" style="edgeLabel;html=1;align=center;verticalAlign=middle;resizable=0;points=[];" parent="358" vertex="1" connectable="0">
                    <mxGeometry x="-0.2" y="3" relative="1" as="geometry">
                        <mxPoint x="3" y="-8" as="offset"/>
                    </mxGeometry>
                </mxCell>
                <mxCell id="360" value="" style="endArrow=async;html=1;fontColor=#FF0000;strokeWidth=2;endFill=1;" parent="1" edge="1">
                    <mxGeometry width="50" height="50" relative="1" as="geometry">
                        <mxPoint x="685" y="531" as="sourcePoint"/>
                        <mxPoint x="615" y="531" as="targetPoint"/>
                    </mxGeometry>
                </mxCell>
                <mxCell id="361" value="&lt;b&gt;&lt;font color=&quot;#000000&quot;&gt;goback&lt;/font&gt;&lt;/b&gt;" style="edgeLabel;html=1;align=center;verticalAlign=middle;resizable=0;points=[];fontColor=#FF0000;" parent="360" vertex="1" connectable="0">
                    <mxGeometry x="-0.1714" y="-2" relative="1" as="geometry">
                        <mxPoint x="-5" y="10" as="offset"/>
                    </mxGeometry>
                </mxCell>
                <mxCell id="362" value="" style="endArrow=classic;html=1;fontColor=#000000;strokeWidth=2;exitX=1;exitY=0.5;exitDx=0;exitDy=0;entryX=1;entryY=0.5;entryDx=0;entryDy=0;" parent="1" source="340" target="324" edge="1">
                    <mxGeometry width="50" height="50" relative="1" as="geometry">
                        <mxPoint x="730" y="370" as="sourcePoint"/>
                        <mxPoint x="780" y="320" as="targetPoint"/>
                        <Array as="points">
                            <mxPoint x="610" y="400"/>
                            <mxPoint x="600" y="420"/>
                            <mxPoint x="570" y="425"/>
                        </Array>
                    </mxGeometry>
                </mxCell>
                <mxCell id="363" value="clear" style="text;html=1;align=center;verticalAlign=middle;resizable=0;points=[];autosize=1;strokeColor=none;fillColor=none;fontColor=#000000;" parent="1" vertex="1">
                    <mxGeometry x="589" y="415" width="40" height="20" as="geometry"/>
                </mxCell>
                <mxCell id="365" value="Home" style="rounded=0;whiteSpace=wrap;html=1;fillColor=#d5e8d4;strokeColor=#82b366;" parent="1" vertex="1">
                    <mxGeometry x="330" y="340" width="40" height="220" as="geometry"/>
                </mxCell>
                <mxCell id="366" value="" style="endArrow=async;html=1;strokeWidth=2;endFill=1;" parent="1" edge="1">
                    <mxGeometry width="50" height="50" relative="1" as="geometry">
                        <mxPoint x="390" y="510" as="sourcePoint"/>
                        <mxPoint x="460" y="510" as="targetPoint"/>
                    </mxGeometry>
                </mxCell>
                <mxCell id="367" value="&lt;b&gt;forward&lt;/b&gt;" style="edgeLabel;html=1;align=center;verticalAlign=middle;resizable=0;points=[];" parent="366" vertex="1" connectable="0">
                    <mxGeometry x="-0.2" y="3" relative="1" as="geometry">
                        <mxPoint x="3" y="-8" as="offset"/>
                    </mxGeometry>
                </mxCell>
                <mxCell id="368" value="" style="endArrow=async;html=1;fontColor=#FF0000;strokeWidth=2;endFill=1;" parent="1" edge="1">
                    <mxGeometry width="50" height="50" relative="1" as="geometry">
                        <mxPoint x="461" y="521.5" as="sourcePoint"/>
                        <mxPoint x="391" y="521.5" as="targetPoint"/>
                    </mxGeometry>
                </mxCell>
                <mxCell id="369" value="&lt;b&gt;&lt;font color=&quot;#000000&quot;&gt;goback&lt;/font&gt;&lt;/b&gt;" style="edgeLabel;html=1;align=center;verticalAlign=middle;resizable=0;points=[];fontColor=#FF0000;" parent="368" vertex="1" connectable="0">
                    <mxGeometry x="-0.1714" y="-2" relative="1" as="geometry">
                        <mxPoint x="-5" y="10" as="offset"/>
                    </mxGeometry>
                </mxCell>
                <mxCell id="370" value="PAGE_B" style="rounded=0;whiteSpace=wrap;html=1;fillColor=#d5e8d4;strokeColor=#82b366;" parent="1" vertex="1">
                    <mxGeometry x="715.5" y="260.5" width="121" height="39" as="geometry"/>
                </mxCell>
                <mxCell id="371" value="PAGE_C" style="rounded=0;whiteSpace=wrap;html=1;fillColor=#d5e8d4;strokeColor=#82b366;" parent="1" vertex="1">
                    <mxGeometry x="948" y="260.5" width="121" height="39" as="geometry"/>
                </mxCell>
            </root>
        </mxGraphModel>
    </diagram>
</mxfile>